<svg width="18" height="18" viewBox="0 0 18 18" fill="none" xmlns="http://www.w3.org/2000/svg">
<mask id="mask0_8710_210317" style="mask-type:alpha" maskUnits="userSpaceOnUse" x="0" y="0" width="18" height="18">
<rect width="18" height="18" transform="matrix(-1 0 0 1 18 0)" fill="#D9D9D9"/>
</mask>
<g mask="url(#mask0_8710_210317)">
<path d="M9 16.5004C9.9375 16.5004 10.8156 16.3223 11.6344 15.966C12.4531 15.6098 13.1656 15.1285 13.7719 14.5223C14.3781 13.916 14.8594 13.2035 15.2156 12.3848C15.5719 11.566 15.75 10.6879 15.75 9.75038C15.75 9.53788 15.6781 9.35975 15.5344 9.216C15.3906 9.07225 15.2125 9.00038 15 9.00038C14.7875 9.00038 14.6094 9.07225 14.4656 9.216C14.3219 9.35975 14.25 9.53788 14.25 9.75038C14.25 11.2129 13.7406 12.4535 12.7219 13.4723C11.7031 14.491 10.4625 15.0004 9 15.0004C7.5375 15.0004 6.29688 14.491 5.27812 13.4723C4.25937 12.4535 3.75 11.2129 3.75 9.75038C3.75 8.28788 4.25937 7.04725 5.27812 6.0285C6.29688 5.00975 7.5375 4.50038 9 4.50038H9.1125L8.475 5.13788C8.325 5.28788 8.25312 5.46288 8.25937 5.66288C8.26562 5.86288 8.3375 6.03788 8.475 6.18788C8.625 6.33788 8.80312 6.416 9.00937 6.42225C9.21562 6.4285 9.39375 6.35663 9.54375 6.20662L11.475 4.27538C11.625 4.12538 11.7 3.95038 11.7 3.75038C11.7 3.55038 11.625 3.37538 11.475 3.22538L9.54375 1.29413C9.39375 1.14413 9.21562 1.07225 9.00937 1.0785C8.80312 1.08475 8.625 1.16288 8.475 1.31288C8.3375 1.46288 8.26562 1.63788 8.25937 1.83788C8.25312 2.03788 8.325 2.21288 8.475 2.36287L9.1125 3.00038H9C8.0625 3.00038 7.18437 3.1785 6.36563 3.53475C5.54688 3.891 4.83437 4.37225 4.22812 4.9785C3.62187 5.58475 3.14062 6.29725 2.78437 7.116C2.42812 7.93475 2.25 8.81288 2.25 9.75038C2.25 10.6879 2.42812 11.566 2.78437 12.3848C3.14062 13.2035 3.62187 13.916 4.22812 14.5223C4.83437 15.1285 5.54688 15.6098 6.36563 15.966C7.18437 16.3223 8.0625 16.5004 9 16.5004Z" fill="#747474"/>
</g>
</svg>
