<svg width="12" height="12" viewBox="0 0 12 12" fill="none" xmlns="http://www.w3.org/2000/svg">
<path d="M5.5 6.5H0.5C0.358333 6.5 0.239583 6.452 0.14375 6.356C0.0479167 6.26 0 6.14108 0 5.99925C0 5.85742 0.0479167 5.73875 0.14375 5.64325C0.239583 5.54775 0.358333 5.5 0.5 5.5H5.5V0.5C5.5 0.358333 5.548 0.239583 5.644 0.14375C5.74 0.0479167 5.85892 0 6.00075 0C6.14258 0 6.26125 0.0479167 6.35675 0.14375C6.45225 0.239583 6.5 0.358333 6.5 0.5V5.5H11.5C11.6417 5.5 11.7604 5.548 11.8562 5.644C11.9521 5.74 12 5.85892 12 6.00075C12 6.14258 11.9521 6.26125 11.8562 6.35675C11.7604 6.45225 11.6417 6.5 11.5 6.5H6.5V11.5C6.5 11.6417 6.452 11.7604 6.356 11.8562C6.26 11.9521 6.14108 12 5.99925 12C5.85742 12 5.73875 11.9521 5.64325 11.8562C5.54775 11.7604 5.5 11.6417 5.5 11.5V6.5Z" fill="#0957D0"/>
</svg>
