<svg width="7" height="10" viewBox="0 0 7 10" fill="none" xmlns="http://www.w3.org/2000/svg">
<path d="M0.990375 9.41186C0.717958 9.41186 0.484792 9.32166 0.290875 9.14124C0.0969584 8.96074 0 8.73749 0 8.47149V1.79461C0 1.53561 0.0882917 1.30836 0.264875 1.11286C0.441458 0.917364 0.65925 0.792656 0.91825 0.738739L4.33175 0.0204889C4.58242 -0.0333445 4.80775 0.0189052 5.00775 0.177239C5.20775 0.335572 5.30775 0.544239 5.30775 0.803239V6.46761C5.30775 6.65803 5.24717 6.82616 5.126 6.97199C5.00483 7.11782 4.85321 7.21157 4.67112 7.25324L0.877875 8.07911C0.777209 8.1022 0.689083 8.1482 0.6135 8.21711C0.537833 8.28603 0.5 8.37082 0.5 8.47149C0.5 8.60157 0.548708 8.70749 0.646125 8.78924C0.743542 8.87099 0.858292 8.91186 0.990375 8.91186H6.19225C6.282 8.91186 6.35575 8.88303 6.4135 8.82537C6.47117 8.76762 6.5 8.69386 6.5 8.60411V1.66186C6.5 1.5907 6.52387 1.53124 6.57162 1.48349C6.61937 1.43574 6.67883 1.41186 6.75 1.41186C6.82117 1.41186 6.88063 1.43574 6.92838 1.48349C6.97613 1.53124 7 1.5907 7 1.66186V8.60411C7 8.82786 6.92133 9.01845 6.764 9.17586C6.60658 9.3332 6.416 9.41186 6.19225 9.41186H0.990375ZM1.69225 7.40324L4.56725 6.78111C4.63783 6.76828 4.69554 6.73303 4.74038 6.67536C4.78529 6.61761 4.80775 6.55349 4.80775 6.48299V0.815739C4.80775 0.719572 4.76925 0.639447 4.69225 0.575364C4.61533 0.511197 4.52883 0.488739 4.43275 0.507989L1.69225 1.09161V7.40324ZM1.19225 7.50711V1.19549L0.976 1.24261C0.839417 1.27211 0.725958 1.33736 0.635625 1.43836C0.545208 1.53928 0.5 1.65803 0.5 1.79461V7.72824C0.560917 7.69232 0.622292 7.6617 0.684125 7.63636C0.745958 7.61103 0.810542 7.59099 0.877875 7.57624L1.19225 7.50711Z" fill="white"/>
</svg>
