<svg width="24" height="24" viewBox="0 0 24 24" fill="none" xmlns="http://www.w3.org/2000/svg">
<mask id="mask0_14199_2902" style="mask-type:alpha" maskUnits="userSpaceOnUse" x="0" y="0" width="24" height="24">
<rect width="24" height="24" fill="#D9D9D9"/>
</mask>
<g mask="url(#mask0_14199_2902)">
<path d="M2.59619 16.9693C2.59619 16.5051 2.71636 16.106 2.95669 15.772C3.19702 15.4382 3.52002 15.1714 3.92569 14.9715C4.79319 14.5585 5.65444 14.2293 6.50944 13.9838C7.36461 13.7383 8.39352 13.6155 9.59619 13.6155C10.7987 13.6155 11.8275 13.7383 12.6827 13.9838C13.5379 14.2293 14.3991 14.5585 15.2664 14.9715C15.6721 15.1714 15.9951 15.4382 16.2354 15.772C16.4759 16.106 16.5962 16.5051 16.5962 16.9693V17.577C16.5962 17.832 16.4964 18.0689 16.2969 18.2875C16.0976 18.5062 15.8512 18.6155 15.5577 18.6155H3.63444C3.34094 18.6155 3.09452 18.5158 2.89519 18.3163C2.69586 18.1169 2.59619 17.8705 2.59619 17.577V16.9693ZM20.3654 18.6155H18.3729C18.4409 18.4565 18.4951 18.2889 18.5354 18.1125C18.5759 17.9362 18.5962 17.7577 18.5962 17.577V16.923C18.5962 16.3435 18.4789 15.7965 18.2442 15.282C18.0097 14.7675 17.677 14.3261 17.2462 13.9578C17.7372 14.0578 18.2103 14.1965 18.6654 14.374C19.1204 14.5517 19.5704 14.7514 20.0154 14.973C20.4488 15.191 20.7885 15.4699 21.0347 15.8098C21.2807 16.1498 21.4037 16.5209 21.4037 16.923V17.577C21.4037 17.8705 21.304 18.1169 21.1047 18.3163C20.9054 18.5158 20.6589 18.6155 20.3654 18.6155ZM9.59619 11.3845C8.77119 11.3845 8.06494 11.0908 7.47744 10.5033C6.88994 9.91577 6.59619 9.20952 6.59619 8.38452C6.59619 7.55952 6.88994 6.85327 7.47744 6.26577C8.06494 5.67827 8.77119 5.38452 9.59619 5.38452C10.4212 5.38452 11.1274 5.67827 11.7149 6.26577C12.3024 6.85327 12.5962 7.55952 12.5962 8.38452C12.5962 9.20952 12.3024 9.91577 11.7149 10.5033C11.1274 11.0908 10.4212 11.3845 9.59619 11.3845ZM16.8654 8.38452C16.8654 9.20952 16.5717 9.91577 15.9842 10.5033C15.3967 11.0908 14.6904 11.3845 13.8654 11.3845C13.8231 11.3845 13.7692 11.3798 13.7037 11.3703C13.6384 11.3606 13.5845 11.35 13.5422 11.3385C13.881 10.9235 14.1414 10.4632 14.3232 9.95752C14.5052 9.45185 14.5962 8.92677 14.5962 8.38227C14.5962 7.83777 14.5009 7.31744 14.3104 6.82127C14.1201 6.3251 13.864 5.8616 13.5422 5.43077C13.596 5.4116 13.6499 5.3991 13.7037 5.39327C13.7575 5.38744 13.8114 5.38452 13.8654 5.38452C14.6904 5.38452 15.3967 5.67827 15.9842 6.26577C16.5717 6.85327 16.8654 7.55952 16.8654 8.38452ZM3.59619 17.6155H15.5962V16.9693C15.5962 16.7346 15.5375 16.5294 15.4202 16.3538C15.3029 16.1783 15.0923 16.0104 14.7884 15.85C14.0423 15.4514 13.2557 15.1459 12.4287 14.9338C11.6019 14.7216 10.6577 14.6155 9.59619 14.6155C8.53452 14.6155 7.59027 14.7216 6.76344 14.9338C5.93644 15.1459 5.14986 15.4514 4.40369 15.85C4.09986 16.0104 3.88927 16.1783 3.77194 16.3538C3.65477 16.5294 3.59619 16.7346 3.59619 16.9693V17.6155ZM9.59619 10.3845C10.1462 10.3845 10.617 10.1887 11.0087 9.79702C11.4004 9.40535 11.5962 8.93452 11.5962 8.38452C11.5962 7.83452 11.4004 7.36369 11.0087 6.97202C10.617 6.58035 10.1462 6.38452 9.59619 6.38452C9.04619 6.38452 8.57536 6.58035 8.18369 6.97202C7.79202 7.36369 7.59619 7.83452 7.59619 8.38452C7.59619 8.93452 7.79202 9.40535 8.18369 9.79702C8.57536 10.1887 9.04619 10.3845 9.59619 10.3845Z" fill="#212121"/>
</g>
</svg>
